<?xml version="1.0" encoding="UTF-8" standalone="no"?>
<svg
   width="216.20499"
   height="68.730362"
   version="1.1"
   id="svg128"
   xmlns="http://www.w3.org/2000/svg"
   xmlns:svg="http://www.w3.org/2000/svg">
  <defs
     id="defs132" />
  <g
     id="Layer_1"
     transform="translate(-5.7599602,-5.7954998)">
    <title
       id="title120">Layer 1</title>
    <rect
       stroke="#ffffff"
       fill="#333854"
       x="7.2599602"
       y="7.2954998"
       width="213.20497"
       height="65.730362"
       id="svg_1"
       stroke-width="3"
       rx="18" />
    <path
       fill="#333854"
       stroke-width="4"
       opacity="0"
       d="M 21.22671,28.49904 43.03059,14.23643 64.06698,28.68559 c -0.09689,7.34432 0.05824,15.76028 -0.03865,23.10461 L 43.0306,66.54461 21.02181,52.37999 20.92261,40.97206 21.22672,28.49904 Z"
       id="svg_6"
       stroke="#ffffff" />
    <g
       aria-label="AptGetMe"
       transform="scale(1.0289332,0.97188038)"
       id="svg_8"
       style="font-size:25.2237px;font-family:Cantarell;-inkscape-font-specification:'Cantarell, Normal';fill:#ffffff;stroke:#ffffff;stroke-width:0">
      <path
         d="m 74.936011,47.301392 h 2.194462 l 1.866554,-5.196083 h 7.289649 l 1.740435,5.196083 h 2.345804 L 84.218333,29.796144 h -2.72416 z m 4.691608,-7.012189 3.102515,-8.702176 2.925949,8.702176 z"
         id="path2642" />
      <path
         d="M 92.643034,52.774934 H 94.66093 V 46.26722 c 0.832382,0.832382 1.992672,1.286409 3.329528,1.286409 3.379972,0 5.650112,-2.623265 5.650112,-6.558162 0,-3.657437 -2.09357,-6.104136 -5.221309,-6.104136 -1.437751,0 -2.825054,0.529698 -3.859226,1.462975 l -0.504474,-1.210738 h -1.412527 z m 5.24653,-16.117944 c 2.270136,0 3.733106,1.816107 3.733106,4.590714 0,2.724159 -1.33685,4.540266 -3.531317,4.540266 -1.488198,0 -2.774607,-0.807159 -3.430423,-2.093567 V 38.01907 c 0.857606,-0.857606 2.04312,-1.36208 3.228634,-1.36208 z"
         id="path2644" />
      <path
         d="m 111.20766,47.42751 c 0.83238,0 1.66476,-0.201789 2.24491,-0.454026 l -0.45403,-1.462975 c -0.37836,0.176566 -0.93328,0.277461 -1.36208,0.277461 -1.26119,0 -2.09357,-0.807159 -2.09357,-2.017896 v -6.936518 h 3.32953 v -1.689988 h -3.32953 V 31.587027 H 107.525 v 3.556541 h -1.63954 v 1.689988 h 1.63954 v 7.213978 c 0,2.017896 1.46297,3.379976 3.68266,3.379976 z"
         id="path2646" />
      <path
         d="m 124.19786,47.528405 c 2.42148,0 4.61594,-0.706264 6.3816,-2.093567 V 38.01907 h -7.06264 v 1.816107 h 4.96907 v 4.893397 c -1.23596,0.630593 -2.59804,0.958501 -3.98534,0.958501 -4.21236,0 -6.93652,-2.900726 -6.93652,-7.390544 0,-4.3637 2.49714,-6.88607 6.75995,-6.88607 1.58909,0 3.43042,0.353132 4.96907,0.933277 l 0.60537,-1.614317 c -1.53865,-0.756711 -3.37998,-1.16029 -5.29698,-1.16029 -5.52399,0 -9.18143,3.606989 -9.18143,9.105755 0,5.347425 3.48087,8.853519 8.77785,8.853519 z"
         id="path2648" />
      <path
         d="m 139.65999,47.553629 c 1.38731,0 2.90073,-0.327908 3.98535,-0.908054 l -0.45403,-1.462974 c -0.93328,0.454026 -2.11879,0.731487 -3.17818,0.731487 -2.57282,0 -4.18714,-1.538646 -4.48982,-4.136687 h 8.47516 c 0.0505,-0.378355 0.1009,-1.261185 0.1009,-1.740435 0,-3.052068 -2.0179,-5.145635 -5.01952,-5.145635 -3.37998,0 -5.67533,2.648489 -5.67533,6.381596 0,3.88445 2.39625,6.280702 6.25547,6.280702 z m -0.73148,-10.947086 c 2.06834,0 3.27908,1.336856 3.27908,3.657436 h -6.70951 c 0.17657,-2.371027 1.38731,-3.657436 3.43043,-3.657436 z"
         id="path2650" />
      <path
         d="m 151.66647,47.42751 c 0.83239,0 1.66477,-0.201789 2.24491,-0.454026 l -0.45402,-1.462975 c -0.37836,0.176566 -0.93328,0.277461 -1.36208,0.277461 -1.26119,0 -2.09357,-0.807159 -2.09357,-2.017896 v -6.936518 h 3.32953 v -1.689988 h -3.32953 v -3.556541 h -2.0179 v 3.556541 h -1.63954 v 1.689988 h 1.63954 v 7.213978 c 0,2.017896 1.46298,3.379976 3.68266,3.379976 z"
         id="path2652" />
      <path
         d="m 156.83733,47.301392 h 1.99268 V 33.554475 l 5.67533,11.022757 h 1.63954 l 5.72578,-11.24977 v 13.97393 h 1.99267 V 29.796144 h -2.06834 l -6.40682,12.536179 -6.40682,-12.536179 h -2.14402 z"
         id="path2654" />
      <path
         d="m 183.751,47.553629 c 1.3873,0 2.90073,-0.327908 3.98535,-0.908054 l -0.45403,-1.462974 c -0.93328,0.454026 -2.11879,0.731487 -3.17819,0.731487 -2.57281,0 -4.18713,-1.538646 -4.48982,-4.136687 h 8.47517 c 0.0504,-0.378355 0.10089,-1.261185 0.10089,-1.740435 0,-3.052068 -2.01789,-5.145635 -5.01951,-5.145635 -3.37998,0 -5.67534,2.648489 -5.67534,6.381596 0,3.88445 2.39626,6.280702 6.25548,6.280702 z m -0.73149,-10.947086 c 2.06835,0 3.27908,1.336856 3.27908,3.657436 h -6.7095 c 0.17657,-2.371027 1.3873,-3.657436 3.43042,-3.657436 z"
         id="path2656" />
    </g>
    <path
       id="svg_2"
       d="M 70.84477,53.66022 H 203.11554"
       opacity="undefined"
       stroke-width="3"
       stroke="#ffffff"
       fill="none" />
    <g
       aria-label="$_"
       transform="scale(0.94838123,1.0544283)"
       id="svg_3"
       style="font-size:25.7631px;font-family:Cantarell;-inkscape-font-specification:'Cantarell, Normal';fill:#56ff56;stroke-width:0">
      <path
         d="m 39.023598,50.008351 h 1.82918 v -3.194625 c 2.885467,-0.463736 4.688884,-2.318679 4.688884,-4.946515 0,-6.028565 -9.248952,-3.812939 -9.248952,-8.218429 0,-1.726127 1.391207,-2.730888 3.864465,-2.730888 1.365444,0 2.936993,0.309157 4.147859,0.850182 l 0.618314,-1.674602 c -1.262392,-0.592551 -2.679362,-0.953234 -4.07057,-1.00476 v -3.246151 h -1.82918 v 3.297677 c -3.014282,0.412209 -4.920752,2.241389 -4.920752,4.869226 0,5.873986 9.22319,3.890228 9.22319,8.192665 0,1.674602 -1.416971,2.808178 -3.838702,2.808178 -1.49426,0 -3.400729,-0.437973 -5.023804,-1.159339 l -0.644078,1.674601 c 1.700365,0.850182 3.478019,1.313918 5.204146,1.391208 z"
         id="path2637" />
      <path
         d="M 46.881341,49.982587 H 60.278153 V 48.204934 H 46.881341 Z"
         id="path2639" />
    </g>
    <path
       style="fill:none;fill-opacity:0;stroke:#ffffff;stroke-width:4;stroke-dasharray:none;stroke-opacity:1"
       id="path344"
       d="M 48.131001,0.59203115 49.110847,32.090041 22.322694,48.687617 -5.4453056,33.787184 -6.4251517,2.2891745 20.363002,-14.308402 Z"
       transform="matrix(0.83686365,0.02495511,-0.02605402,0.83896179,24.619905,26.372262)" />
  </g>
</svg>
